<svg xmlns="http://www.w3.org/2000/svg" width="36" height="36"><g fill="none"><path fill="#1E2537" d="M15.418 0c8.504 0 15.459 6.914 15.459 15.418 0 3.497-1.193 6.716-3.14 9.3l6.716 6.715a2.519 2.519 0 010 3.576c-.477.517-1.152.755-1.788.755a2.597 2.597 0 01-1.788-.755l-6.756-6.755-.08-.08a15.36 15.36 0 01-8.623 2.663C6.914 30.837 0 23.922 0 15.418 0 6.914 6.914 0 15.418 0zm-.006.992C7.43.992.96 7.446.96 15.407c0 7.962 6.47 14.416 14.452 14.416s14.452-6.454 14.452-14.416c0-7.961-6.47-14.415-14.452-14.415z"/><path fill="#FFF" d="M18.788 21.479c-.864.864-2.257 1.03-3.426 1.03-1.168 0-2.561-.166-3.424-1.03m9.494-13.673l-4.378-1.03-1.7 5.188 1.7-5.189m7.89 1.385a1.726 1.726 0 01-3.452 0 1.727 1.727 0 013.452 0zM5.53 17.494a2.19 2.19 0 01.13-4.063 2.19 2.19 0 012.426.65m14.518.044a2.19 2.19 0 112.504 3.405"/><path fill="#1E2537" d="M15.315 25.404c-5.705 0-10.347-3.097-10.347-6.904 0-.263.022-.523.066-.779a2.622 2.622 0 113.113-4.195c1.794-1.152 4.208-1.877 6.871-1.927l1.749-5.336.381.09.01.003 4.074.959a2.16 2.16 0 111.986 3.004 2.161 2.161 0 01-2.158-2.156l-3.718-.875-1.416 4.32c2.566.1 4.884.827 6.614 1.954a2.624 2.624 0 113.066 4.211c.038.24.057.481.057.727 0 3.807-4.643 6.904-10.348 6.904zM5.92 17.682a3.88 3.88 0 00-.087.818c0 3.33 4.254 6.039 9.482 6.039s9.482-2.71 9.482-6.039a3.84 3.84 0 00-.08-.781.442.442 0 01-.042-.189c-.29-1.136-1.079-2.167-2.22-2.999a.425.425 0 01-.185-.131c-1.733-1.192-4.209-1.939-6.955-1.939-2.718 0-5.173.733-6.904 1.904a.433.433 0 01-.173.12c-1.165.832-1.975 1.87-2.275 3.017a.432.432 0 01-.037.166c-.002.005-.003.01-.006.014zm17.343-3.598c1.003.802 1.739 1.757 2.115 2.806.44-.331.697-.85.694-1.401a1.756 1.756 0 00-2.809-1.406zM6.41 13.733a1.756 1.756 0 00-1.136 3.096c.39-1.04 1.133-1.987 2.14-2.782a1.758 1.758 0 00-1.004-.314zm16.808-6.867a1.295 1.295 0 101.293 1.294c0-.713-.58-1.294-1.293-1.294zm-7.856 16.076c-1.732 0-2.953-.379-3.73-1.157a.432.432 0 11.611-.612c.608.608 1.628.904 3.12.904 1.49 0 2.51-.296 3.12-.904a.432.432 0 11.611.612c-.78.778-2 1.157-3.732 1.157z"/><path fill="#FF4500" d="M18.869 15.623c-.881 0-1.621.738-1.621 1.62 0 .88.74 1.595 1.621 1.595.882 0 1.596-.714 1.596-1.595 0-.882-.714-1.62-1.596-1.62zm-6.988 0c-.88 0-1.62.74-1.62 1.62 0 .88.739 1.595 1.62 1.595.88 0 1.595-.715 1.595-1.595s-.715-1.62-1.595-1.62z"/></g></svg>